<?xml version="1.0" standalone="no"?>
<!DOCTYPE svg PUBLIC "-//W3C//DTD SVG 20010904//EN"
 "http://www.w3.org/TR/2001/REC-SVG-20010904/DTD/svg10.dtd">
<svg version="1.0" xmlns="http://www.w3.org/2000/svg"
 width="650.000000pt" height="384.000000pt" viewBox="0 0 650.000000 384.000000"
 preserveAspectRatio="xMidYMid meet">

<g transform="translate(0.000000,384.000000) scale(0.100000,-0.100000)"
fill="#000000" stroke="none">
<path d="M1843 3503 c9 -2 25 -2 35 0 9 3 1 5 -18 5 -19 0 -27 -2 -17 -5z"/>
<path d="M1943 3430 c0 -47 2 -66 4 -42 l4 42 44 0 c40 0 44 -2 48 -27 2 -16
4 4 4 42 0 39 -2 53 -4 33 -4 -38 -5 -38 -48 -38 -43 0 -44 0 -48 38 -2 20 -4
-1 -4 -48z"/>
<path d="M1800 3479 c-6 -11 -10 -25 -8 -30 2 -5 8 4 15 21 13 34 9 40 -7 9z"/>
<path d="M2140 3479 c-12 -22 -12 -23 3 -10 15 12 17 11 18 -5 0 -11 3 -14 5
-7 3 7 1 20 -4 29 -9 15 -11 15 -22 -7z"/>
<path d="M1660 3467 c0 -13 5 -49 11 -80 11 -52 14 -57 38 -56 22 2 23 2 5 6
-34 6 -47 68 -16 76 13 4 11 5 -5 6 -18 1 -23 7 -23 30 0 23 5 31 23 34 19 4
18 4 -5 6 -23 1 -28 -3 -28 -22z"/>
<path d="M2263 3473 c-23 -9 -14 -48 18 -74 41 -33 34 -68 -14 -70 -31 -2 -31
-2 -4 -6 31 -5 57 11 57 35 0 9 -14 31 -31 48 -35 36 -34 60 3 67 18 3 19 4 3
5 -11 0 -26 -2 -32 -5z"/>
<path d="M1520 3435 c0 -14 2 -25 4 -25 2 0 6 11 8 25 3 14 1 25 -3 25 -5 0
-9 -11 -9 -25z"/>
<path d="M1588 3450 c16 -19 15 -45 -3 -60 -18 -15 -14 -23 28 -50 l32 -22
-33 29 c-30 26 -32 30 -18 42 21 18 20 45 -1 62 -15 11 -16 11 -5 -1z"/>
<path d="M2111 3424 c-6 -15 -9 -29 -7 -32 3 -2 10 8 16 23 14 36 7 43 -9 9z"/>
<path d="M2171 3418 c-1 -16 -8 -28 -18 -31 -14 -4 -12 -5 5 -6 12 0 22 -7 22
-15 0 -8 4 -17 9 -21 6 -3 6 8 1 27 -5 18 -11 42 -13 53 -4 15 -5 14 -6 -7z"/>
<path d="M1383 3405 c-3 -9 -3 -19 1 -22 3 -4 6 1 6 10 0 8 6 18 13 20 9 4 9
6 -1 6 -7 1 -15 -6 -19 -14z"/>
<path d="M1451 3403 c10 -18 10 -24 0 -37 -16 -19 -51 -21 -51 -4 0 6 -2 9 -6
6 -3 -3 2 -21 10 -39 9 -19 13 -24 11 -13 -4 17 0 23 19 28 32 8 44 43 21 65
-16 15 -16 15 -4 -6z"/>
<path d="M1790 3410 c0 -24 29 -60 48 -59 14 1 14 2 -1 6 -10 3 -25 19 -32 36
-8 18 -14 25 -15 17z"/>
<path d="M1532 3390 c0 -8 4 -26 8 -40 6 -20 8 -21 8 -5 0 11 -3 29 -8 40 -5
12 -8 14 -8 5z"/>
<path d="M2086 3363 c-6 -14 -5 -15 5 -6 7 7 10 15 7 18 -3 3 -9 -2 -12 -12z"/>
<path d="M1240 3350 c-9 -6 -10 -10 -3 -10 6 0 15 5 18 10 8 12 4 12 -15 0z"/>
<path d="M1878 3353 c7 -3 16 -2 19 1 4 3 -2 6 -13 5 -11 0 -14 -3 -6 -6z"/>
<path d="M1488 3320 c3 -21 -1 -31 -18 -40 -12 -6 -28 -9 -36 -6 -8 3 -14 1
-14 -4 0 -15 33 -12 58 6 21 15 30 58 14 68 -5 3 -6 -8 -4 -24z"/>
<path d="M1205 3330 c-3 -5 -2 -18 4 -27 7 -14 9 -12 8 10 -2 30 -3 31 -12 17z"/>
<path d="M1130 3269 c14 -5 33 -20 42 -32 10 -12 18 -17 18 -10 0 16 -49 53
-69 52 -9 0 -6 -4 9 -10z"/>
<path d="M1220 3268 c0 -14 18 -17 28 -5 8 10 6 13 -9 13 -10 0 -19 -4 -19 -8z"/>
<path d="M1075 3260 c-3 -6 1 -7 9 -4 18 7 21 14 7 14 -6 0 -13 -4 -16 -10z"/>
<path d="M1050 3244 c0 -6 7 -19 16 -30 14 -18 14 -18 3 6 -14 31 -19 36 -19
24z"/>
<path d="M1829 3225 c-364 -59 -675 -237 -912 -520 -237 -283 -364 -691 -328
-1053 39 -387 190 -692 474 -962 90 -85 206 -163 340 -229 211 -104 355 -140
593 -148 89 -3 182 -3 208 1 40 6 46 10 46 31 0 47 43 210 59 223 9 7 42 30
73 52 66 47 122 54 153 20 10 -11 21 -20 25 -20 4 0 -13 21 -37 46 -23 25 -43
50 -43 55 0 16 37 9 122 -22 46 -17 103 -37 128 -45 26 -8 95 -51 165 -103 66
-50 126 -90 134 -91 7 0 -8 15 -35 33 -34 23 -50 41 -55 62 -3 17 -13 45 -23
63 -18 36 -18 37 19 20 19 -8 31 -8 51 1 23 10 30 8 60 -14 21 -16 51 -27 81
-30 26 -3 39 -1 28 3 -41 15 -57 29 -53 48 2 12 13 20 31 22 34 4 46 28 22 46
-10 7 -15 18 -12 23 4 6 0 13 -8 17 -11 4 -13 16 -8 51 5 41 4 45 -16 45 -14
0 -21 6 -21 20 0 18 -3 19 -21 9 -18 -9 -24 -8 -31 5 -5 9 -17 16 -28 16 -14
0 -20 8 -22 33 l-3 32 -54 -4 c-30 -2 -72 -9 -94 -17 -22 -8 -42 -12 -44 -10
-3 3 11 33 31 69 50 88 54 134 23 232 -14 44 -41 140 -61 213 -57 211 -112
300 -214 348 -31 14 -65 33 -74 42 -14 12 -21 12 -32 3 -12 -10 -21 -4 -52 40
-56 77 -133 101 -188 58 -27 -21 -66 -87 -66 -111 0 -7 18 -33 40 -57 22 -24
40 -52 40 -62 0 -12 10 -21 28 -25 15 -3 38 -9 52 -14 14 -5 36 -8 50 -7 25 2
25 2 23 -77 -1 -43 -4 -81 -7 -84 -4 -3 -17 5 -31 18 -18 17 -25 19 -25 9 0
-8 5 -20 12 -27 17 -17 -4 -16 -50 3 -71 30 -118 -16 -52 -50 17 -9 30 -18 30
-21 0 -2 -8 0 -19 5 -10 6 -21 7 -25 4 -4 -4 22 -20 56 -36 35 -16 72 -37 83
-47 11 -10 38 -20 60 -22 l40 -3 10 -70 c6 -38 16 -81 23 -93 16 -28 9 -64
-19 -103 -10 -15 -37 -65 -58 -112 l-39 -85 34 -7 c39 -7 38 6 13 -142 -11
-59 -13 -64 -63 -97 -57 -40 -71 -44 -61 -19 4 10 15 65 25 123 17 101 17 106
0 124 -18 18 -19 18 -62 -12 -23 -16 -74 -40 -111 -52 -37 -12 -82 -34 -99
-48 -33 -28 -67 -93 -68 -129 0 -31 -60 -95 -101 -110 l-34 -13 46 43 c77 71
80 83 45 188 -24 68 -37 93 -56 102 -60 31 -71 39 -67 43 2 3 29 -4 58 -16 50
-18 55 -23 69 -67 18 -56 38 -64 73 -29 13 13 50 32 81 42 61 19 106 60 106
96 0 54 -35 228 -45 228 -7 0 -55 13 -106 30 l-94 30 -58 75 c-56 73 -59 75
-101 75 -44 0 -73 -19 -103 -66 -12 -17 -13 -16 -10 11 1 21 12 36 41 56 22
14 47 41 57 60 10 19 24 45 31 58 11 21 9 26 -22 52 -74 63 -75 63 -123 40
-50 -24 -133 -27 -187 -6 l-35 13 42 1 c51 1 86 14 113 41 17 17 18 23 8 40
-7 11 -23 20 -35 20 -16 0 -23 8 -28 33 -9 42 -32 77 -51 77 -8 0 -34 9 -56
20 -32 15 -63 20 -127 20 l-86 1 -45 53 c-69 83 -74 84 -161 41 -41 -21 -84
-46 -96 -58 -13 -11 -23 -16 -23 -11 2 41 178 152 221 139 15 -5 19 -1 19 20
0 48 -22 116 -43 130 -24 17 -11 20 26 6 22 -8 25 -18 31 -83 7 -64 13 -79 49
-130 l42 -56 75 -7 c45 -4 90 -14 112 -26 29 -16 42 -18 58 -9 11 6 20 15 20
20 0 6 18 10 40 10 26 0 51 8 70 22 l29 21 -29 16 c-79 43 -150 102 -192 156
-34 46 -55 64 -84 73 -30 9 -40 9 -46 -1 -31 -50 -40 -50 -26 1 8 28 12 32 44
32 49 0 82 -22 129 -86 60 -80 166 -149 259 -169 78 -16 376 -22 376 -7 -1 15
-121 94 -135 88 -9 -3 -20 -18 -26 -33 -9 -25 -12 -26 -20 -11 -7 12 -5 24 5
40 29 45 29 89 1 163 -14 39 -30 74 -35 79 -6 6 -10 14 -10 20 0 5 16 -5 35
-24 19 -19 35 -39 35 -46 0 -7 11 -44 24 -83 26 -76 50 -103 138 -154 58 -33
90 -25 83 21 -24 160 -27 214 -22 319 6 129 -3 160 -50 182 -32 15 -70 14 -75
-1 -3 -8 -10 -3 -18 12 -7 14 -24 37 -38 53 -34 35 -25 34 57 -8 37 -19 74
-35 83 -35 9 0 20 17 29 43 l13 42 6 -60 c3 -33 14 -77 23 -98 15 -36 16 -43
1 -86 -12 -38 -14 -66 -7 -132 l8 -84 40 2 c95 6 127 15 148 39 18 20 28 24
53 19 46 -8 65 17 35 48 -11 13 -21 28 -21 34 0 6 36 44 81 85 89 80 124 136
135 217 6 49 6 51 -18 51 -29 0 -127 51 -153 80 -21 24 -48 26 -65 5 -23 -28
-30 -15 -14 23 9 21 15 60 15 91 l-2 54 19 -24 c11 -13 22 -38 26 -54 4 -17
17 -43 29 -59 20 -24 32 -29 87 -33 54 -4 69 -2 89 14 29 23 40 81 28 143 -5
25 -10 92 -12 149 l-3 104 -33 18 c-19 9 -73 30 -120 47 l-85 30 -24 -38 c-29
-47 -37 -45 -16 4 8 19 11 38 7 40 -5 3 -48 13 -97 22 -120 22 -383 27 -495 9z"/>
<path d="M1250 3211 c0 -10 19 -25 25 -20 1 2 -3 10 -11 17 -8 7 -14 8 -14 3z"/>
<path d="M1192 3185 c0 -16 2 -22 5 -12 2 9 2 23 0 30 -3 6 -5 -1 -5 -18z"/>
<path d="M1090 3170 c6 -11 13 -20 16 -20 2 0 0 9 -6 20 -6 11 -13 20 -16 20
-2 0 0 -9 6 -20z"/>
<path d="M909 3143 c-13 -16 -12 -17 4 -4 16 13 21 21 13 21 -2 0 -10 -8 -17
-17z"/>
<path d="M1116 3126 c7 -19 30 -21 40 -4 4 7 3 8 -5 4 -6 -4 -19 -2 -27 5 -12
10 -13 9 -8 -5z"/>
<path d="M903 3100 c3 -11 18 -15 58 -15 49 0 54 -2 57 -23 2 -13 -2 -31 -10
-40 -12 -15 -11 -16 5 -3 9 7 17 24 17 36 0 35 -23 48 -71 40 -30 -5 -44 -3
-51 6 -8 11 -9 11 -5 -1z"/>
<path d="M817 3062 l-27 -28 53 -59 c40 -43 56 -55 62 -45 5 8 4 11 -2 7 -6
-4 -20 5 -33 18 -23 24 -23 25 -4 47 18 23 18 23 -1 6 -18 -17 -20 -17 -42 4
l-23 22 27 28 c15 15 24 28 22 28 -3 0 -17 -13 -32 -28z"/>
<path d="M2733 3054 c-6 -15 14 -200 23 -216 2 -3 19 -3 37 2 17 5 65 14 105
20 89 15 101 31 51 72 -37 32 -111 82 -172 116 -34 19 -38 20 -44 6z"/>
<path d="M759 2964 c17 -12 22 -24 19 -45 -4 -29 -4 -29 41 -27 44 1 44 2 9 5
-32 4 -38 8 -38 27 0 22 -27 56 -46 56 -4 0 2 -7 15 -16z"/>
<path d="M705 2950 c-15 -17 -16 -23 -5 -33 10 -9 11 -9 5 1 -4 8 0 21 11 33
9 10 15 19 12 19 -3 0 -13 -9 -23 -20z"/>
<path d="M721 2904 c0 -5 21 -26 45 -48 24 -21 44 -35 43 -30 0 5 -21 26 -45
48 -24 21 -44 35 -43 30z"/>
<path d="M648 2853 c6 -2 18 -2 25 0 6 3 1 5 -13 5 -14 0 -19 -2 -12 -5z"/>
<path d="M609 2833 c-13 -16 -12 -17 4 -4 9 7 17 15 17 17 0 8 -8 3 -21 -13z"/>
<path d="M690 2847 c0 -3 12 -12 26 -22 15 -9 23 -12 20 -6 -7 11 -46 35 -46
28z"/>
<path d="M600 2781 c0 -21 63 -71 90 -71 9 0 25 7 36 16 18 15 18 15 -3 5 -35
-18 -53 -13 -89 23 -19 19 -34 31 -34 27z"/>
<path d="M3843 2711 c-93 -27 -173 -71 -229 -127 -63 -62 -89 -111 -105 -197
-30 -164 67 -324 242 -400 52 -23 100 -36 274 -72 250 -54 369 -116 416 -220
48 -105 -2 -244 -116 -320 -80 -53 -160 -75 -274 -75 -157 0 -275 43 -438 161
-87 63 -110 70 -136 41 -31 -34 -21 -66 35 -117 320 -288 853 -266 1020 42 51
92 56 260 11 346 -25 49 -113 130 -173 159 -58 28 -196 68 -399 118 -191 46
-282 97 -328 184 -22 41 -23 160 -1 201 38 72 139 141 239 164 66 16 227 13
294 -4 59 -15 188 -74 253 -116 39 -25 73 -20 91 15 20 36 6 59 -59 106 -161
112 -438 162 -617 111z"/>
<path d="M4807 2712 c-23 -25 -21 -58 3 -82 19 -19 33 -20 493 -20 521 0 517
0 517 60 0 62 16 60 -514 60 -455 0 -484 -1 -499 -18z"/>
<path d="M6167 2712 c-16 -17 -17 -84 -17 -759 0 -704 1 -741 18 -756 25 -23
58 -21 82 3 20 20 20 33 20 753 0 647 -2 735 -16 755 -19 27 -64 29 -87 4z"/>
<path d="M519 2693 c-13 -15 -12 -15 9 -4 23 12 28 21 13 21 -5 0 -15 -7 -22
-17z"/>
<path d="M595 2698 c11 -6 28 -18 38 -26 9 -8 17 -11 17 -6 0 10 -52 44 -67
44 -4 0 1 -6 12 -12z"/>
<path d="M495 2660 c-3 -5 -3 -15 0 -20 7 -12 65 -43 65 -36 0 3 -14 13 -31
21 -19 11 -29 22 -25 31 6 16 0 19 -9 4z"/>
<path d="M651 2634 c0 -11 3 -14 6 -6 3 7 2 16 -1 19 -3 4 -6 -2 -5 -13z"/>
<path d="M570 2596 c0 -3 9 -10 20 -16 11 -6 20 -8 20 -6 0 3 -9 10 -20 16
-11 6 -20 8 -20 6z"/>
<path d="M630 2580 c-6 -11 -8 -20 -6 -20 3 0 10 9 16 20 6 11 8 20 6 20 -3 0
-10 -9 -16 -20z"/>
<path d="M4825 2548 c-41 -23 -47 -66 -15 -98 19 -19 33 -20 230 -20 l210 0 0
-603 c0 -664 -2 -647 60 -647 62 0 60 -17 60 647 l0 603 210 0 c197 0 211 1
230 20 33 33 26 76 -17 99 -30 16 -940 15 -968 -1z"/>
<path d="M440 2542 c0 -13 109 -116 116 -109 4 4 -1 9 -10 13 -11 4 -15 13
-11 28 5 16 4 18 -4 6 -8 -12 -16 -9 -46 20 -25 24 -31 36 -22 42 8 5 7 8 -5
8 -10 0 -18 -4 -18 -8z"/>
<path d="M511 2536 c2 -2 24 -7 49 -10 31 -4 39 -3 25 4 -20 9 -82 14 -74 6z"/>
<path d="M385 2419 c-4 -6 -5 -12 -2 -15 2 -3 7 2 10 11 7 17 1 20 -8 4z"/>
<path d="M448 2420 c6 -8 12 -22 12 -32 0 -20 6 -21 35 -7 19 9 18 9 -2 5 -14
-2 -23 1 -23 9 0 7 -8 19 -17 26 -15 11 -16 11 -5 -1z"/>
<path d="M374 2378 c3 -13 75 -42 83 -34 3 3 -13 10 -35 16 -22 5 -43 15 -45
20 -3 6 -4 5 -3 -2z"/>
<path d="M480 2330 c8 -5 22 -9 30 -9 10 0 8 3 -5 9 -27 12 -43 12 -25 0z"/>
<path d="M372 2275 c7 -7 118 -9 125 -1 3 3 -24 6 -62 6 -38 0 -66 -2 -63 -5z"/>
<path d="M340 2262 c0 -6 38 -32 120 -81 48 -29 12 1 -54 44 -36 24 -66 40
-66 37z"/>
<path d="M322 2168 c-7 -7 -12 -16 -12 -22 0 -5 6 -3 13 6 6 9 21 18 32 21 20
5 20 5 0 6 -12 0 -26 -4 -33 -11z"/>
<path d="M386 2157 c3 -10 9 -15 12 -12 3 3 0 11 -7 18 -10 9 -11 8 -5 -6z"/>
<path d="M300 2109 c0 -8 59 -24 65 -17 2 2 -12 8 -31 14 -19 6 -34 8 -34 3z"/>
<path d="M391 2103 c-1 -18 4 -23 22 -22 15 1 17 3 5 6 -9 2 -19 12 -21 21 -3
12 -5 10 -6 -5z"/>
<path d="M292 2008 l-2 -48 43 0 c23 0 59 -3 80 -6 37 -7 37 -6 36 27 -2 30
-2 31 -6 7 -4 -29 -12 -32 -50 -22 -15 4 -23 15 -26 38 l-4 31 -1 -32 c-2 -29
-5 -33 -31 -33 -28 0 -30 3 -34 43 l-4 42 -1 -47z"/>
<path d="M296 1894 c-9 -8 -16 -21 -16 -27 0 -6 7 -1 16 11 19 27 36 28 59 2
18 -20 30 -18 70 15 12 10 5 8 -16 -4 -36 -21 -36 -21 -54 -1 -22 24 -38 25
-59 4z"/>
<path d="M280 1828 c0 -5 37 -7 83 -7 85 2 75 6 -26 11 -31 2 -57 0 -57 -4z"/>
<path d="M360 1675 c-21 -49 -45 -58 -60 -22 -6 15 -9 17 -9 6 -1 -22 25 -43
44 -36 8 4 23 23 33 44 15 31 23 38 45 36 15 -1 25 2 22 8 -4 5 -17 9 -31 9
-20 0 -29 -9 -44 -45z"/>
<path d="M398 1583 c7 -3 16 -2 19 1 4 3 -2 6 -13 5 -11 0 -14 -3 -6 -6z"/>
<path d="M330 1560 c-37 -37 -19 -92 35 -106 33 -8 99 25 102 51 3 18 2 18 -6
-2 -6 -13 -26 -27 -50 -34 -34 -10 -44 -9 -66 5 -38 25 -33 70 10 94 11 6 14
12 8 12 -7 0 -22 -9 -33 -20z"/>
<path d="M452 1558 c7 -15 15 -23 17 -17 2 6 -4 18 -13 27 -15 15 -15 15 -4
-10z"/>
<path d="M440 1413 c19 -3 43 -12 53 -20 21 -20 23 -10 1 11 -9 10 -30 15 -52
14 l-37 -1 35 -4z"/>
<path d="M376 1395 c-22 -22 -29 -52 -16 -72 9 -15 9 -14 5 7 -4 18 1 35 15
53 23 29 21 36 -4 12z"/>
<path d="M512 1350 c0 -14 2 -19 5 -12 2 6 2 18 0 25 -3 6 -5 1 -5 -13z"/>
<path d="M465 1320 c-13 -6 -15 -9 -5 -9 8 0 22 4 30 9 18 12 2 12 -25 0z"/>
<path d="M370 1291 c0 -5 9 -7 20 -4 11 3 20 7 20 9 0 2 -9 4 -20 4 -11 0 -20
-4 -20 -9z"/>
<path d="M507 1275 c-15 -14 -22 -25 -15 -25 7 0 21 12 31 25 22 31 19 31 -16
0z"/>
<path d="M436 1214 c-15 -14 -26 -28 -22 -31 3 -4 7 -4 9 -2 1 2 13 16 26 32
30 34 25 34 -13 1z"/>
<path d="M515 1227 c3 -10 5 -23 5 -28 0 -5 15 -8 33 -8 28 2 29 3 6 6 -15 2
-32 14 -38 26 -7 14 -10 15 -6 4z"/>
<path d="M463 1183 c9 -2 25 -2 35 0 9 3 1 5 -18 5 -19 0 -27 -2 -17 -5z"/>
<path d="M560 1139 c-17 -13 -18 -17 -5 -10 33 17 51 31 40 31 -5 0 -21 -10
-35 -21z"/>
<path d="M464 1078 c-3 -4 13 -8 35 -8 23 0 41 2 41 4 0 8 -71 12 -76 4z"/>
<path d="M569 1081 c7 -5 10 -14 7 -20 -4 -6 -5 -11 -2 -11 3 0 10 9 16 20 9
17 8 20 -12 20 -17 0 -19 -3 -9 -9z"/>
<path d="M3498 1053 c6 -2 18 -2 25 0 6 3 1 5 -13 5 -14 0 -19 -2 -12 -5z"/>
<path d="M4242 978 l2 -83 3 78 c3 65 6 77 21 77 42 0 56 -48 22 -71 -21 -14
-20 -14 10 -49 l32 -35 -22 33 c-20 31 -21 34 -6 51 34 37 10 81 -43 81 -20 0
-21 -5 -19 -82z"/>
<path d="M4447 1042 c-10 -10 -17 -23 -17 -28 0 -4 7 2 16 14 8 12 26 22 39
22 13 0 31 -10 39 -22 9 -12 16 -18 16 -12 0 17 -35 44 -57 44 -11 0 -27 -8
-36 -18z"/>
<path d="M4652 978 l2 -83 3 78 c4 72 5 77 27 77 34 0 66 -35 66 -73 0 -37 -7
-49 -35 -65 -11 -6 -14 -12 -7 -12 24 0 52 39 52 75 0 46 -37 85 -80 85 l-30
0 2 -82z"/>
<path d="M5430 1051 c0 -5 9 -7 20 -4 22 6 50 -12 50 -33 0 -7 -9 -22 -21 -33
-16 -15 -18 -21 -7 -27 7 -4 10 -4 6 1 -5 5 1 14 12 22 25 18 26 45 2 66 -20
18 -62 23 -62 8z"/>
<path d="M5578 1046 c-23 -17 -40 -64 -32 -90 8 -25 33 -56 47 -56 5 0 -1 8
-14 19 -47 38 -21 125 40 134 26 4 26 4 1 5 -14 1 -33 -4 -42 -12z"/>
<path d="M5816 1039 c-19 -28 -12 -42 29 -62 39 -18 47 -49 18 -66 -10 -6 -13
-11 -7 -11 16 0 34 22 34 42 0 11 -15 28 -36 40 -44 26 -44 60 1 69 30 7 30 7
3 8 -17 1 -32 -7 -42 -20z"/>
<path d="M5958 1053 c6 -2 18 -2 25 0 6 3 1 5 -13 5 -14 0 -19 -2 -12 -5z"/>
<path d="M6190 1040 c-38 -38 -19 -140 26 -140 4 0 -2 7 -14 16 -44 30 -23
134 27 134 50 0 72 -104 29 -134 -12 -9 -18 -16 -12 -16 23 0 44 38 44 78 0
47 -26 82 -60 82 -11 0 -29 -9 -40 -20z"/>
<path d="M3467 1043 c-10 -9 -9 -41 1 -47 5 -3 9 8 9 24 0 33 -1 33 -10 23z"/>
<path d="M3592 978 l-2 -78 43 2 42 1 -37 4 -37 4 -4 72 -3 72 -2 -77z"/>
<path d="M3712 993 l1 -58 6 50 c5 42 8 46 15 27 4 -13 10 -21 12 -19 7 7 -18
57 -28 57 -4 0 -7 -26 -6 -57z"/>
<path d="M3811 1032 c-17 -31 -13 -40 5 -14 9 13 14 26 11 29 -3 2 -10 -4 -16
-15z"/>
<path d="M3893 975 c0 -44 2 -61 4 -37 2 23 2 59 0 80 -2 20 -4 1 -4 -43z"/>
<path d="M3952 973 l2 -78 3 63 c4 55 6 62 19 51 13 -11 14 -9 3 14 -21 46
-29 30 -27 -50z"/>
<path d="M4040 988 c-1 -66 0 -66 -38 -11 -7 10 -6 5 2 -12 8 -16 21 -39 30
-50 14 -19 15 -14 16 58 0 42 -2 77 -5 77 -3 0 -5 -28 -5 -62z"/>
<path d="M4137 1043 c-4 -3 -7 -11 -7 -17 0 -6 4 -4 9 3 8 12 11 9 17 -12 3
-16 8 -26 11 -24 6 7 -8 57 -16 57 -4 0 -11 -3 -14 -7z"/>
<path d="M4373 975 c0 -44 2 -61 4 -37 2 23 2 59 0 80 -2 20 -4 1 -4 -43z"/>
<path d="M4800 975 l0 -75 43 2 42 1 -37 4 c-36 4 -38 6 -38 38 0 31 3 34 33
38 l32 4 -34 1 c-31 2 -33 4 -29 32 3 17 1 30 -4 30 -4 0 -8 -34 -8 -75z"/>
<path d="M4983 975 c0 -44 2 -61 4 -37 2 23 2 59 0 80 -2 20 -4 1 -4 -43z"/>
<path d="M5042 973 l2 -78 3 69 c4 62 5 67 19 50 13 -17 13 -16 3 9 -20 46
-29 30 -27 -50z"/>
<path d="M5223 975 c0 -44 2 -61 4 -37 2 23 2 59 0 80 -2 20 -4 1 -4 -43z"/>
<path d="M5691 978 l-1 -78 43 2 42 1 -37 4 c-36 4 -38 6 -38 39 0 20 5 34 13
34 9 0 9 2 0 8 -6 4 -13 21 -16 37 -2 17 -5 -5 -6 -47z"/>
<path d="M6085 1040 c3 -5 8 -10 11 -10 2 0 4 5 4 10 0 6 -5 10 -11 10 -5 0
-7 -4 -4 -10z"/>
<path d="M538 1015 c-23 -30 -23 -46 -1 -38 12 5 13 8 4 11 -9 3 -8 9 5 23 9
11 15 21 13 23 -2 2 -12 -6 -21 -19z"/>
<path d="M625 1030 c-3 -6 1 -7 9 -4 18 7 21 14 7 14 -6 0 -13 -4 -16 -10z"/>
<path d="M5920 1016 c0 -8 4 -17 9 -20 5 -4 7 3 4 14 -6 23 -13 26 -13 6z"/>
<path d="M574 1004 c-18 -14 -18 -14 6 -3 31 14 36 19 24 19 -6 0 -19 -7 -30
-16z"/>
<path d="M3833 955 c0 -33 2 -45 4 -27 2 18 2 45 0 60 -2 15 -4 0 -4 -33z"/>
<path d="M4112 977 c-16 -45 -17 -43 28 -39 34 4 41 1 49 -19 5 -13 10 -17 10
-9 0 8 -7 29 -15 45 -8 17 -12 22 -9 13 3 -15 -2 -18 -31 -18 -32 0 -34 2 -24
21 6 11 10 25 8 30 -2 6 -9 -5 -16 -24z"/>
<path d="M6051 968 c-7 -24 -14 -50 -17 -58 -2 -8 1 -5 7 8 9 17 21 22 51 22
40 0 42 3 27 35 -9 19 -9 18 -5 -2 4 -20 0 -23 -26 -23 -28 0 -29 2 -23 30 10
45 -1 36 -14 -12z"/>
<path d="M4422 975 c0 -16 2 -22 5 -12 2 9 2 23 0 30 -3 6 -5 -1 -5 -18z"/>
<path d="M4542 980 c0 -14 2 -19 5 -12 2 6 2 18 0 25 -3 6 -5 1 -5 -13z"/>
<path d="M630 948 c-25 -33 -26 -36 -5 -14 20 22 29 26 35 16 5 -8 8 -4 7 13
-1 15 -3 27 -4 27 -1 0 -16 -19 -33 -42z"/>
<path d="M3507 978 c30 -15 37 -37 17 -59 -10 -11 -14 -19 -11 -19 9 0 37 31
37 41 0 14 -38 49 -52 48 -7 0 -3 -5 9 -11z"/>
<path d="M3618 983 c6 -2 18 -2 25 0 6 3 1 5 -13 5 -14 0 -19 -2 -12 -5z"/>
<path d="M3785 969 c-7 -22 -8 -22 -21 -4 -8 10 -14 14 -14 9 0 -6 6 -18 13
-28 12 -16 14 -16 25 9 7 15 11 30 8 32 -2 2 -7 -6 -11 -18z"/>
<path d="M5090 970 c6 -11 13 -20 16 -20 2 0 0 9 -6 20 -6 11 -13 20 -16 20
-2 0 0 -9 6 -20z"/>
<path d="M5323 983 c9 -2 25 -2 35 0 9 3 1 5 -18 5 -19 0 -27 -2 -17 -5z"/>
<path d="M5956 979 c3 -5 11 -9 19 -9 20 0 25 -25 9 -49 -13 -18 -13 -20 0
-15 35 13 25 67 -14 77 -11 3 -18 1 -14 -4z"/>
<path d="M4430 931 c0 -10 29 -36 34 -30 1 2 -6 12 -16 22 -10 9 -18 13 -18 8z"/>
<path d="M4517 920 c-9 -11 -13 -20 -8 -20 11 0 35 29 29 35 -2 2 -12 -4 -21
-15z"/>
<path d="M5120 920 c13 -23 20 -26 20 -6 0 8 -7 16 -15 20 -13 4 -14 2 -5 -14z"/>
<path d="M5480 936 c0 -2 8 -10 18 -17 15 -13 16 -12 3 4 -13 16 -21 21 -21
13z"/>
<path d="M683 915 c0 -8 4 -15 9 -15 4 0 8 4 8 9 0 6 -4 12 -8 15 -5 3 -9 -1
-9 -9z"/>
<path d="M6131 914 c0 -11 3 -14 6 -6 3 7 2 16 -1 19 -3 4 -6 -2 -5 -13z"/>
<path d="M718 913 c7 -3 16 -2 19 1 4 3 -2 6 -13 5 -11 0 -14 -3 -6 -6z"/>
<path d="M5328 903 c12 -2 32 -2 45 0 12 2 2 4 -23 4 -25 0 -35 -2 -22 -4z"/>
<path d="M587 893 c-10 -9 -9 -23 1 -23 5 0 9 7 9 15 0 17 -1 18 -10 8z"/>
<path d="M618 883 c7 -3 16 -2 19 1 4 3 -2 6 -13 5 -11 0 -14 -3 -6 -6z"/>
<path d="M714 842 c-28 -26 -41 -40 -30 -32 29 21 92 80 86 80 -3 0 -28 -22
-56 -48z"/>
<path d="M720 814 c0 -4 10 -18 22 -31 l21 -23 -29 -25 c-16 -14 -24 -25 -19
-25 6 1 35 24 65 52 35 32 42 42 21 27 l-34 -23 -24 28 c-12 15 -23 24 -23 20z"/>
<path d="M878 759 c42 -49 19 -113 -48 -129 -33 -7 -33 -8 -7 -9 19 -1 38 9
58 28 38 38 39 79 2 112 l-28 24 23 -26z"/>
<path d="M765 650 c10 -11 20 -20 23 -20 3 0 -3 9 -13 20 -10 11 -20 20 -23
20 -3 0 3 -9 13 -20z"/>
<path d="M2621 607 c2 -1 13 -9 24 -17 19 -14 19 -14 6 3 -7 9 -18 17 -24 17
-6 0 -8 -1 -6 -3z"/>
<path d="M2472 563 c-33 -26 -34 -27 -76 -11 l-43 16 -37 -94 c-20 -52 -36
-106 -36 -120 0 -26 1 -26 46 -19 110 16 304 80 312 103 6 18 -55 102 -92 127
-20 14 -38 25 -39 25 -1 -1 -17 -13 -35 -27z"/>
<path d="M3250 586 c0 -2 7 -7 16 -10 8 -3 12 -2 9 4 -6 10 -25 14 -25 6z"/>
</g>
</svg>
